<?xml version="1.0" standalone="no"?>
<!DOCTYPE svg PUBLIC "-//W3C//DTD SVG 20010904//EN"
 "http://www.w3.org/TR/2001/REC-SVG-20010904/DTD/svg10.dtd">
<svg version="1.0" xmlns="http://www.w3.org/2000/svg"
 width="1024.000000pt" height="1024.000000pt" viewBox="0 0 1024.000000 1024.000000"
 preserveAspectRatio="xMidYMid meet">
<metadata>
Created by potrace 1.11, written by Peter Selinger 2001-2013
</metadata>
<g transform="translate(0.000000,1024.000000) scale(0.100000,-0.100000)"
fill="#000000" stroke="none">
<path d="M1565 10230 c-228 -46 -422 -239 -470 -466 -22 -104 -22 -9184 0
-9288 44 -206 203 -380 415 -452 53 -18 162 -19 3605 -19 3443 0 3552 1 3605
19 158 54 296 170 363 307 73 149 67 -193 65 3991 l-3 3773 -27 80 c-15 45
-42 101 -60 126 -18 26 -396 440 -840 920 -865 936 -862 933 -1009 987 l-74
27 -2765 1 c-1521 1 -2783 -2 -2805 -6z m5300 -1243 l0 -932 33 -67 c38 -78
94 -129 172 -159 48 -18 86 -19 905 -19 l855 0 -2 -3637 -3 -3638 -23 -47
c-13 -26 -45 -67 -72 -92 -89 -84 271 -76 -3615 -76 -3858 0 -3521 -7 -3609
71 -26 23 -59 65 -74 93 l-27 51 -3 4570 c-2 4120 -1 4574 14 4617 29 88 94
155 179 186 21 7 804 11 2650 11 l2620 1 0 -933z"/>
<path d="M2470 5165 l0 -2985 720 0 720 0 0 86 0 86 -106 100 c-183 175 -310
350 -424 583 -152 309 -220 597 -220 932 0 349 68 647 220 958 113 233 223
386 419 580 l111 110 0 1267 0 1268 -720 0 -720 0 0 -2985z"/>
<path d="M5120 5855 c-338 -47 -676 -195 -945 -415 -99 -81 -248 -240 -319
-341 -33 -46 -64 -88 -70 -94 -45 -42 -163 -278 -216 -432 -22 -64 -53 -174
-68 -243 -24 -115 -26 -143 -26 -355 0 -212 2 -240 26 -356 75 -348 214 -615
466 -896 329 -365 772 -585 1263 -626 673 -55 1339 266 1714 828 240 360 351
777 317 1199 -71 905 -758 1623 -1662 1735 -113 14 -362 12 -480 -4z"/>
<path d="M7653 3035 c-104 -32 -195 -112 -246 -215 -30 -60 -32 -72 -32 -165
0 -92 3 -106 32 -168 39 -82 110 -154 190 -194 53 -26 67 -28 168 -28 104 0
114 2 176 32 80 39 150 111 187 191 34 72 42 202 18 284 -33 116 -138 222
-255 258 -73 23 -175 25 -238 5z"/>
</g>
</svg>
